<svg width="44" height="38" viewBox="0 0 44 38" fill="none" xmlns="http://www.w3.org/2000/svg">
<path d="M43 18H42V13C42 12.4 41.6 12 41 12H40V7C40 6.4 39.6 6 39 6H38V1C38 0.4 37.6 0 37 0H9C8.4 0 8 0.4 8 1V6C8 6.6 8.4 7 9 7C9.6 7 10 6.6 10 6V2H36V6H20C19.4 6 19 6.4 19 7C19 7.6 19.4 8 20 8H38V12H29C28.4 12 28 12.4 28 13C28 13.6 28.4 14 29 14H38H39H40V18H32C31.4 18 31 18.4 31 19C31 19.6 31.4 20 32 20H42V24H33C32.4 24 32 24.4 32 25C32 25.6 32.4 26 33 26H36V30H31C30.4 30 30 30.4 30 31C30 31.6 30.4 32 31 32H40V36H26C25.4 36 25 36.4 25 37C25 37.6 25.4 38 26 38H41C41.6 38 42 37.6 42 37V31C42 30.4 41.6 30 41 30H38V26H43C43.6 26 44 25.6 44 25V19C44 18.4 43.6 18 43 18Z" fill="#17CDF7"/>
<path fill-rule="evenodd" clip-rule="evenodd" d="M15 8C23.3 8 30 14.7 30 23C30 31.3 23.3 38 15 38C6.7 38 0 31.3 0 23C0 14.7 6.7 8 15 8ZM2 23C2 30.2 7.8 36 15 36C22.2 36 28 30.2 28 23C28 15.8 22.2 10 15 10C7.8 10 2 15.8 2 23Z" fill="#17CDF7"/>
<path fill-rule="evenodd" clip-rule="evenodd" d="M4 23C4 16.9 8.9 12 15 12C21.1 12 26 16.9 26 23C26 29.1 21.1 34 15 34C8.9 34 4 29.1 4 23ZM6 23C6 28 10 32 15 32C20 32 24 28 24 23C24 18 20 14 15 14C10 14 6 18 6 23Z" fill="#17CDF7"/>
<path d="M17 25H16V20C16 19.4 15.6 19 15 19H13C12.4 19 12 19.4 12 20C12 20.6 12.4 21 13 21H14V25H13C12.4 25 12 25.4 12 26C12 26.6 12.4 27 13 27H17C17.6 27 18 26.6 18 26C18 25.4 17.6 25 17 25Z" fill="#17CDF7"/>
</svg>
