<svg width="38" height="44" viewBox="0 0 38 44" fill="none" xmlns="http://www.w3.org/2000/svg">
<path d="M19 12C19.5523 12 20 11.5523 20 11C20 10.4477 19.5523 10 19 10C18.4477 10 18 10.4477 18 11C18 11.5523 18.4477 12 19 12Z" fill="#17CDF7"/>
<path d="M23 12C23.5523 12 24 11.5523 24 11C24 10.4477 23.5523 10 23 10C22.4477 10 22 10.4477 22 11C22 11.5523 22.4477 12 23 12Z" fill="#17CDF7"/>
<path d="M27 12C27.5523 12 28 11.5523 28 11C28 10.4477 27.5523 10 27 10C26.4477 10 26 10.4477 26 11C26 11.5523 26.4477 12 27 12Z" fill="#17CDF7"/>
<path d="M11 12C11.5523 12 12 11.5523 12 11C12 10.4477 11.5523 10 11 10C10.4477 10 10 10.4477 10 11C10 11.5523 10.4477 12 11 12Z" fill="#17CDF7"/>
<path d="M15 12C15.5523 12 16 11.5523 16 11C16 10.4477 15.5523 10 15 10C14.4477 10 14 10.4477 14 11C14 11.5523 14.4477 12 15 12Z" fill="#17CDF7"/>
<path d="M19 36C19.6 36 20 35.6 20 35V34C22 34 23.5 32.1 22.8 30C22.4 28.8 21.2 28 19.9 28H18C17.4 28 17 27.6 17 27C17 26.4 17.4 26 18 26H21C21.6 26 22 25.6 22 25C22 24.4 21.6 24 21 24H20V23C20 22.4 19.6 22 19 22C18.4 22 18 22.4 18 23V24C16 24 14.5 25.9 15.2 28C15.6 29.2 16.8 30 18.1 30H20C20.6 30 21 30.4 21 31C21 31.6 20.6 32 20 32H17C16.4 32 16 32.4 16 33C16 33.6 16.4 34 17 34H18V35C18 35.6 18.4 36 19 36Z" fill="#17CDF7"/>
<path fill-rule="evenodd" clip-rule="evenodd" d="M4 11C4 11.6 3.6 12 3 12C2.4 12 2 11.6 2 11V10C2 8.9 2.4 7.9 3.2 7.2C3.9 6.4 4.9 6 6 6H11.6C11.2 5.4 11 4.7 11 4C11 1.8 12.8 0 15 0C15.6 0 16 0.4 16 1C16 1.6 15.6 2 15 2C13.9 2 13 2.9 13 4C13 5.1 13.9 6 15 6H16.6C16.2 5.4 16 4.7 16 4C16 1.8 17.8 0 20 0C22.2 0 24 1.8 24 4C24 4.7 23.8 5.4 23.4 6H32C34.2 6 36 7.8 36 10V11C36 11.6 35.6 12 35 12C34.4 12 34 11.6 34 11V10C34 8.9 33.1 8 32 8H6C5.5 8 5 8.2 4.6 8.6C4.2 9 4 9.5 4 10V11ZM20 2C18.9 2 18 2.9 18 4C18 5.1 18.9 6 20 6C21.1 6 22 5.1 22 4C22 2.9 21.1 2 20 2Z" fill="#17CDF7"/>
<path d="M37.2 31.6L32.7 19.7C32.2 18.5 32 17.2 32 15.8V11C32 10.4 31.6 10 31 10C30.4 10 30 10.4 30 11V15.8C30 17.4 30.3 18.9 30.8 20.4L35.3 32.3C35.8 33.5 36 34.8 36 36.2V40C36 41.1 35.1 42 34 42H4C2.9 42 2 41.1 2 40V36.2C2 34.9 2.2 33.6 2.7 32.3L7.2 20.4C7.7 18.9 8 17.4 8 15.8V11C8 10.4 7.6 10 7 10C6.4 10 6 10.4 6 11V15.8C6 17.1 5.8 18.4 5.3 19.7L0.8 31.6C0.3 33.1 0 34.6 0 36.2V40C0 42.2 1.8 44 4 44H34C36.2 44 38 42.2 38 40V36.2C38 34.6 37.7 33.1 37.2 31.6Z" fill="#17CDF7"/>
<path d="M6.5 34L11 22.4C11.2 21.9 10.9 21.3 10.4 21.1C9.9 20.9 9.3 21.2 9.1 21.7L4.6 33.3C4.2 34.3 4 35.4 4 36.5V39C4 39.6 4.4 40 5 40H10C10.6 40 11 39.6 11 39C11 38.4 10.6 38 10 38H6V36.5C6 35.6 6.2 34.8 6.5 34Z" fill="#17CDF7"/>
</svg>
