<svg width="40" height="44" viewBox="0 0 40 44" fill="none" xmlns="http://www.w3.org/2000/svg">
<path fill-rule="evenodd" clip-rule="evenodd" d="M36.178 20.871C35.83 21.246 35.463 21.62 35.077 21.994C37.555 24.39 39.231 26.772 39.79 28.857C40.168 30.272 40.038 31.511 39.402 32.54C38.452 34.079 36.227 34.987 33.008 34.987C31.42 34.988 29.588 34.764 27.549 34.29C25.972 40.225 23.239 44 20 44C19.559 44 19.116 43.928 18.685 43.787C18.16 43.615 17.874 43.05 18.046 42.525C18.218 42 18.783 41.713 19.308 41.886C19.538 41.962 19.771 42 20 42C22.034 42 24.207 38.891 25.583 33.768C23.846 33.259 21.977 32.572 20 31.706C18.023 32.571 16.154 33.259 14.416 33.768C14.531 34.198 14.653 34.615 14.781 35.023C14.8116 35.0209 14.8417 35.0168 14.8718 35.0127L14.8719 35.0127C14.9145 35.0068 14.9571 35.001 15.001 35.001C16.655 35.001 18.001 36.347 18.001 38.001C18.001 39.655 16.655 41.001 15.001 41.001C13.347 41.001 12.001 39.655 12.001 38.001C12.001 37.146 12.364 36.379 12.939 35.832C12.778 35.331 12.627 34.815 12.485 34.283C10.432 34.763 8.58899 34.988 6.99299 34.988C3.77299 34.988 1.54899 34.081 0.598993 32.541C-0.0370071 31.512 -0.167007 30.273 0.210993 28.858C0.768993 26.774 2.44299 24.394 4.91699 22C2.44299 19.606 0.768993 17.226 0.210993 15.143C-0.167007 13.728 -0.0370071 12.489 0.598993 11.46C1.03999 10.746 1.70499 10.176 2.57799 9.767C3.07799 9.533 3.67199 9.747 3.90699 10.247C4.14199 10.747 3.92699 11.343 3.42599 11.577C2.91199 11.818 2.53299 12.131 2.29999 12.509C1.96599 13.051 1.91399 13.763 2.14399 14.624C2.61799 16.399 4.14099 18.501 6.38999 20.651C7.81499 19.421 9.43699 18.201 11.22 17.03C11.386 15.139 11.644 13.354 11.986 11.702C11.8921 11.68 11.7993 11.66 11.7067 11.6399C11.6475 11.6271 11.5883 11.6143 11.529 11.601C10.996 12.439 10.065 13 9.00099 13C7.34699 13 6.00099 11.654 6.00099 10C6.00099 8.346 7.34699 7 9.00099 7C10.535 7 11.789 8.162 11.965 9.65C12.019 9.66197 12.073 9.6736 12.127 9.68523L12.127 9.68524L12.127 9.68524L12.127 9.68525L12.1271 9.68525L12.1271 9.68526L12.1271 9.68526L12.1271 9.68527L12.1272 9.68528L12.1272 9.68528L12.1272 9.68529L12.1273 9.68529L12.1273 9.6853C12.231 9.70764 12.3348 9.73002 12.44 9.755C14.016 3.795 16.753 0 20 0C23.24 0 25.974 3.778 27.55 9.716C33.722 8.284 37.983 9.162 39.401 11.459C39.691 11.929 39.546 12.545 39.076 12.835C38.605 13.125 37.989 12.98 37.7 12.51C36.689 10.875 33.017 10.535 28.015 11.708C28.356 13.359 28.615 15.141 28.78 17.031C30.559 18.2 32.177 19.416 33.599 20.643C33.925 20.33 34.237 20.017 34.534 19.704C34.198 19.219 33.998 18.633 33.998 18C33.998 16.346 35.344 15 36.998 15C38.652 15 39.998 16.346 39.998 18C39.998 19.654 38.652 21 36.998 21C36.712 21 36.44 20.947 36.178 20.871ZM37.998 18C37.998 17.449 37.55 17 36.998 17C36.447 17 35.998 17.449 35.998 18C35.998 18.551 36.446 19 36.998 19C37.55 19 37.998 18.551 37.998 18ZM9.00099 11C8.44899 11 8.00099 10.551 8.00099 10C8.00099 9.449 8.44899 9 9.00099 9C9.55299 9 10.001 9.449 10.001 10C10.001 10.551 9.55299 11 9.00099 11ZM15 39C15.552 39 16 38.551 16 38C16 37.449 15.552 37 15 37C14.448 37 14 37.449 14 38C14 38.551 14.448 39 15 39ZM32.108 21.992C31.138 22.819 30.084 23.637 28.947 24.435C28.98 23.637 28.999 22.826 28.999 22C28.999 21.172 28.98 20.361 28.947 19.562C30.086 20.361 31.145 21.176 32.108 21.992ZM13.141 18.178C13.054 19.405 13.001 20.676 13.001 22C13.001 23.292 13.048 24.57 13.137 25.819C14.178 26.476 15.263 27.117 16.395 27.728C17.618 28.388 18.822 28.978 20 29.509C21.178 28.978 22.382 28.389 23.605 27.728C24.733 27.119 25.818 26.48 26.859 25.824C26.946 24.597 26.999 23.325 26.999 22C26.999 20.676 26.946 19.405 26.859 18.178C25.819 17.522 24.736 16.882 23.605 16.272C22.41 15.627 21.202 15.036 19.996 14.493C18.819 15.024 17.617 15.612 16.395 16.272C15.264 16.882 14.181 17.522 13.141 18.178ZM26.625 15.69C25.95 15.289 25.264 14.894 24.555 14.511C23.868 14.14 23.175 13.789 22.48 13.45C23.72 12.967 24.915 12.56 26.059 12.224C26.284 13.312 26.475 14.469 26.625 15.69ZM25.584 10.236C24.208 5.11 22.034 2 20 2C17.961 2 15.782 5.124 14.406 10.271C16.206 10.799 18.08 11.486 19.966 12.297C21.96 11.421 23.832 10.749 25.584 10.236ZM13.942 12.22C15.104 12.563 16.299 12.979 17.509 13.45C16.831 13.786 16.146 14.134 15.446 14.512C14.737 14.895 14.051 15.29 13.376 15.691C13.525 14.468 13.716 13.308 13.942 12.22ZM11.001 22C11.001 21.173 11.02 20.361 11.053 19.562C9.90999 20.363 8.84799 21.181 7.88299 22C8.85099 22.821 9.91499 23.641 11.061 24.444C11.025 23.635 11.001 22.822 11.001 22ZM2.29999 31.49C1.96599 30.948 1.91299 30.237 2.14399 29.375C2.61899 27.6 4.14199 25.498 6.38999 23.348C7.81799 24.581 9.44499 25.803 11.233 26.977C11.402 28.83 11.664 30.612 12.013 32.286C6.99599 33.468 3.31199 33.129 2.29999 31.49ZM13.385 28.315C13.532 29.512 13.72 30.668 13.948 31.774C15.09 31.438 16.284 31.032 17.522 30.549C16.838 30.211 16.152 29.869 15.446 29.488C14.74 29.107 14.057 28.713 13.385 28.315ZM22.478 30.55C23.162 30.212 23.848 29.87 24.554 29.489C25.26 29.108 25.948 28.714 26.624 28.313C26.474 29.534 26.284 30.691 26.058 31.777C24.914 31.44 23.718 31.032 22.478 30.55ZM28.015 32.293C33.018 33.467 36.69 33.126 37.7 31.49C38.034 30.948 38.087 30.236 37.856 29.375C37.381 27.598 35.855 25.493 33.602 23.341C32.168 24.581 30.549 25.797 28.781 26.959C28.616 28.853 28.357 30.639 28.015 32.293Z" fill="#17CDF7"/>
</svg>
