<svg width="44" height="45" viewBox="0 0 44 45" fill="none" xmlns="http://www.w3.org/2000/svg">
<path d="M41 0H3C1.3 0 0 1.3 0 3V29C0 30.7 1.3 32 3 32H20C20.6 32 21 31.6 21 31C21 30.4 20.6 30 20 30H3C2.4 30 2 29.6 2 29V3C2 2.4 2.4 2 3 2H41C41.6 2 42 2.4 42 3V29C42 29.6 41.6 30 41 30H39.4L39.7 29.7C40 29.3 40 28.7 39.7 28.4L38.5 27L38.9 25.2C39 24.7 38.7 24.2 38.2 24L36.5 23.4L36 21.8C35.8 21.3 35.3 21 34.8 21.1L33 21.5L31.7 20.3C31.3 20 30.7 20 30.4 20.3L29 21.5L27.2 21.1C26.7 21 26.2 21.3 26 21.8L25.4 23.5L23.8 24C23.3 24.2 23 24.7 23.1 25.2L23.5 27L22.3 28.3C22 28.7 22 29.3 22.3 29.6L23.5 30.9L23.1 32.7C23 33.2 23.3 33.7 23.8 33.9L25.5 34.5L26.1 36.2C26.3 36.7 26.8 37 27.3 36.9L29.1 36.5L30.4 37.7C30.8 38 31.4 38 31.7 37.7L33 36.5L34 36.7V41.3L31.4 40C31.1 39.9 30.8 39.9 30.5 40L28 41.4V39C28 38.4 27.6 38 27 38C26.4 38 26 38.4 26 39V43C26 43.3 26.2 43.7 26.5 43.9C26.8 44.1 27.2 44.1 27.5 43.9L31.1 42.1L34.7 43.9C34.7 44 34.8 44 35 44C35.2 44 35.4 43.9 35.5 43.9C35.8 43.7 36 43.4 36 43V35.9C36 35.4 35.7 35 35.2 34.9L32.9 34.4C32.6 34.3 32.3 34.4 32 34.6L30.9 35.6L29.8 34.6C29.6 34.4 29.2 34.3 28.9 34.4L27.5 34.7L27.1 33.3C27 33 26.8 32.8 26.5 32.7L25.1 32.3L25.4 30.9C25.5 30.6 25.4 30.3 25.2 30L24.2 28.9L25.2 27.8C25.4 27.6 25.5 27.2 25.4 26.9L25.1 25.5L26.5 25.1C26.8 25 27 24.8 27.1 24.5L27.5 23.1L28.9 23.4C29.2 23.5 29.5 23.4 29.8 23.2L30.9 22.2L32 23.2C32.2 23.4 32.6 23.5 32.9 23.4L34.3 23.1L34.7 24.5C34.8 24.8 35 25 35.3 25.1L36.7 25.5L36.4 26.9C36.3 27.2 36.4 27.5 36.6 27.8L37.6 28.9L36.6 30C36.4 30.2 36.3 30.6 36.4 30.9L36.9 33.2C37 33.7 37.5 34.1 38.1 34C38.6 33.9 39 33.4 38.9 32.8L38.7 32H41C42.7 32 44 30.7 44 29V3C44 1.3 42.7 0 41 0Z" fill="#17CDF7"/>
<path fill-rule="evenodd" clip-rule="evenodd" d="M27 29C27 26.8 28.8 25 31 25C33.2 25 35 26.8 35 29C35 31.2 33.2 33 31 33C28.8 33 27 31.2 27 29ZM29 29C29 30.1 29.9 31 31 31C32.1 31 33 30.1 33 29C33 27.9 32.1 27 31 27C29.9 27 29 27.9 29 29Z" fill="#17CDF7"/>
<path d="M28 4H16C15.4 4 15 4.4 15 5C15 5.6 15.4 6 16 6H28C28.6 6 29 5.6 29 5C29 4.4 28.6 4 28 4Z" fill="#17CDF7"/>
<path d="M23 15C23 14.4 22.6 14 22 14H7C6.4 14 6 14.4 6 15C6 15.6 6.4 16 7 16H22C22.6 16 23 15.6 23 15Z" fill="#17CDF7"/>
<path d="M19 19C19 18.4 18.6 18 18 18H7C6.4 18 6 18.4 6 19C6 19.6 6.4 20 7 20H18C18.6 20 19 19.6 19 19Z" fill="#17CDF7"/>
<path d="M26 9C26 8.4 25.6 8 25 8H19C18.4 8 18 8.4 18 9C18 9.6 18.4 10 19 10H25C25.6 10 26 9.6 26 9Z" fill="#17CDF7"/>
<path d="M26 16H32C32.6 16 33 15.6 33 15C33 14.4 32.6 14 32 14H26C25.4 14 25 14.4 25 15C25 15.6 25.4 16 26 16Z" fill="#17CDF7"/>
<path d="M12.8 25C12.5 25 12.3 24.9 12.1 24.7L11.1 23.7C9.9 22.5 8 22.5 6.9 23.7L6.3 24.3C5.9 24.7 5.9 25.3 6.3 25.7C6.7 26.1 7.3 26.1 7.7 25.7L8.3 25.1C8.7 24.7 9.3 24.7 9.7 25.1L10.7 26.1C11.3 26.7 12 27 12.8 27H15C15.6 27 16 26.6 16 26C16 25.4 15.6 25 15 25H12.8Z" fill="#17CDF7"/>
<path d="M26 19C26 18.4 25.6 18 25 18H22C21.4 18 21 18.4 21 19C21 19.6 21.4 20 22 20H25C25.6 20 26 19.6 26 19Z" fill="#17CDF7"/>
</svg>
