<svg width="44" height="40" viewBox="0 0 44 40" fill="none" xmlns="http://www.w3.org/2000/svg">
<path fill-rule="evenodd" clip-rule="evenodd" d="M3 0H41C42.7 0 44 1.3 44 3V37C44 38.7 42.7 40 41 40H3C1.3 40 0 38.7 0 37V3C0 1.3 1.3 0 3 0ZM41 38C41.6 38 42 37.6 42 37V3C42 2.4 41.6 2 41 2H3C2.4 2 2 2.4 2 3V37C2 37.6 2.4 38 3 38H41Z" fill="#17CDF7"/>
<path fill-rule="evenodd" clip-rule="evenodd" d="M6 4H39C39.6 4 40 4.4 40 5V35C40 35.6 39.6 36 39 36H6C5.4 36 5 35.6 5 35V34C5 33.4 5.4 33 6 33C6.6 33 7 33.4 7 34H38V6H7V8C7.6 8 8 8.4 8 9V15C8 15.6 7.6 16 7 16H4C3.4 16 3 15.6 3 15V9C3 8.4 3.4 8 4 8H5V5C5 4.4 5.4 4 6 4ZM5 14H6V10H5V14Z" fill="#17CDF7"/>
<path fill-rule="evenodd" clip-rule="evenodd" d="M8 24V30C8 30.6 7.6 31 7 31H4C3.4 31 3 30.6 3 30V24C3 23.4 3.4 23 4 23H5V19C5 18.4 5.4 18 6 18C6.6 18 7 18.4 7 19V23C7.6 23 8 23.4 8 24ZM5 29H6V25H5V29Z" fill="#17CDF7"/>
<path fill-rule="evenodd" clip-rule="evenodd" d="M16 28C15.8 28 15.5 27.9 15.3 27.7C14.9 27.3 14.9 26.7 15.3 26.3L18.8 22.8C18.3 22 18 21 18 20C18 19 18.3 18 18.8 17.2L15.3 13.7C14.9 13.3 14.9 12.7 15.3 12.3C15.7 11.9 16.3 11.9 16.7 12.3L20.2 15.8C21 15.3 22 15 23 15C24 15 25 15.3 25.8 15.8L29.3 12.3C29.7 11.9 30.3 11.9 30.7 12.3C31.1 12.7 31.1 13.3 30.7 13.7L27.2 17.2C27.7 18 28 19 28 20C28 21 27.7 22 27.2 22.8L30.7 26.3C31.1 26.7 31.1 27.3 30.7 27.7C30.5 27.9 30.2 28 30 28C29.8 28 29.5 27.9 29.3 27.7L25.8 24.2C25 24.7 24 25 23 25C22 25 21 24.7 20.2 24.2L16.7 27.7C16.5 27.9 16.2 28 16 28ZM22.3 17.1C21.2 17.3 20.4 18.2 20.1 19.3C20 19.5 20 19.7 20 20C20 20.1652 20.0303 20.3 20.0576 20.4212C20.0798 20.5202 20.1 20.6101 20.1 20.7C20.3 21.8 21.2 22.6 22.3 22.9C22.5 23 22.8 23 23 23C23.2 23 23.5 23 23.7 22.9C24.8 22.7 25.6 21.8 25.9 20.7C26 20.5 26 20.3 26 20C26 19.8348 25.9697 19.7 25.9424 19.5788C25.9202 19.4798 25.9 19.3899 25.9 19.3C25.7 18.2 24.8 17.4 23.7 17.1C23.5 17 23.3 17 23 17C22.8348 17 22.7 17.0303 22.5788 17.0576C22.4798 17.0798 22.3899 17.1 22.3 17.1Z" fill="#17CDF7"/>
<path d="M23 21C23.5523 21 24 20.5523 24 20C24 19.4477 23.5523 19 23 19C22.4477 19 22 19.4477 22 20C22 20.5523 22.4477 21 23 21Z" fill="#17CDF7"/>
</svg>
