<svg width="44" height="45" viewBox="0 0 44 45" fill="none" xmlns="http://www.w3.org/2000/svg">
<path d="M34 35C33.4 35 33 35.4 33 36C33 37.1 32.1 38 31 38C29.9 38 29 37.1 29 36V27C29 26.4 28.6 26 28 26C27.4 26 27 26.4 27 27V36C27 38.2 28.8 40 31 40C33.2 40 35 38.2 35 36C35 35.4 34.6 35 34 35Z" fill="#17CDF7"/>
<path d="M27 43C25.9 43 25 42.1 25 41V24C25 23.4 24.6 23 24 23C23.4 23 23 23.4 23 24V41C23 43.2 24.8 45 27 45C27.6 45 28 44.6 28 44C28 43.4 27.6 43 27 43Z" fill="#17CDF7"/>
<path d="M43 32C41.9 32 41 31.1 41 30C41 27.8 39.2 26 37 26H31C30.4 26 30 26.4 30 27C30 27.6 30.4 28 31 28H37C38.1 28 39 28.9 39 30C39 32.2 40.8 34 43 34C43.6 34 44 33.6 44 33C44 32.4 43.6 32 43 32Z" fill="#17CDF7"/>
<path d="M17 27C17 26.4 16.6 26 16 26C15.4 26 15 26.4 15 27V36C15 37.1 14.1 38 13 38C11.9 38 11 37.1 11 36C11 35.4 10.6 35 10 35C9.4 35 9 35.4 9 36C9 38.2 10.8 40 13 40C15.2 40 17 38.2 17 36V27Z" fill="#17CDF7"/>
<path d="M20 23C19.4 23 19 23.4 19 24V41C19 42.1 18.1 43 17 43C16.4 43 16 43.4 16 44C16 44.6 16.4 45 17 45C19.2 45 21 43.2 21 41V24C21 23.4 20.6 23 20 23Z" fill="#17CDF7"/>
<path d="M31 13C31 15.4 30 16.9 29 18.6C28.6 19.3 28.2 20 27.8 20.7C27.4 21.6 27.4 22.7 28 23.6C28.6 24.5 29.5 25 30.5 25H31.8C35.3 25 38 22.4 38 19V16C38 14.9 38.9 14 40 14C41.1 14 42 14.9 42 16C42 16.6 42.4 17 43 17C43.6 17 44 16.6 44 16C44 13.8 42.2 12 40 12C37.8 12 36 13.8 36 16V19C36 21.2 34.2 23 31.8 23H30.5C30.2 23 29.8 22.8 29.7 22.5C29.5 22.2 29.5 21.8 29.6 21.5C29.9 20.9 30.3 20.3 30.7 19.6C31.8 17.8 33 15.9 33 12.9C33 5.80002 28.5 0.900024 22 0.900024C15.5 0.900024 11 5.90002 11 13C11 15.9 12.2 17.9 13.3 19.7C13.7 20.3 14.1 21 14.4 21.6C14.6 21.9 14.5 22.3 14.3 22.6C14.1 22.9 13.8 23.1 13.5 23.1H12C9.8 23.1 8 21.3 8 19.1V16.1C8 13.9 6.2 12.1 4 12.1C1.8 12.1 0 13.9 0 16.1C0 16.7 0.4 17.1 1 17.1C1.6 17.1 2 16.7 2 16.1C2 15 2.9 14.1 4 14.1C5.1 14.1 6 15 6 16.1V19.1C6 22.4 8.7 25.1 12 25.1H13.5C14.5 25.1 15.5 24.6 16 23.7C16.6 22.8 16.6 21.7 16.2 20.8C15.9 20.1 15.4 19.4 15 18.7C14 17 13 15.4 13 13.1C13 7.10002 16.6 3.10002 22 3.10002C27.4 3.10002 31 7.00002 31 13Z" fill="#17CDF7"/>
<path d="M18 19C18.5523 19 19 18.5523 19 18C19 17.4477 18.5523 17 18 17C17.4477 17 17 17.4477 17 18C17 18.5523 17.4477 19 18 19Z" fill="#17CDF7"/>
<path d="M26 19C26.5523 19 27 18.5523 27 18C27 17.4477 26.5523 17 26 17C25.4477 17 25 17.4477 25 18C25 18.5523 25.4477 19 26 19Z" fill="#17CDF7"/>
<path d="M14 27C14 26.4 13.6 26 13 26H7C4.8 26 3 27.8 3 30C3 31.1 2.1 32 1 32C0.4 32 0 32.4 0 33C0 33.6 0.4 34 1 34C3.2 34 5 32.2 5 30C5 28.9 5.9 28 7 28H13C13.6 28 14 27.6 14 27Z" fill="#17CDF7"/>
</svg>
